<svg xmlns="http://www.w3.org/2000/svg" xmlns:xlink="http://www.w3.org/1999/xlink" xmlns:lucid="lucid" width="1080" height="480"><g transform="translate(-113.33333333333337 -148)" lucid:page-tab-id="0_0"><path d="M261.33 188c17.68 0 32 17.9 32 40s-14.32 40-32 40h-96c-17.67 0-32-17.9-32-40s14.33-40 32-40z" stroke="#000" stroke-opacity="0" fill="#0c7cba"/><use xlink:href="#a" transform="matrix(1,0,0,1,138.33333333333337,193) translate(22.049999999999997 38.4625)"/><use xlink:href="#b" transform="matrix(1,0,0,1,138.33333333333337,193) translate(84 38.4625)"/><path d="M261.33 428c17.68 0 32 17.9 32 40s-14.32 40-32 40h-96c-17.67 0-32-17.9-32-40s14.33-40 32-40z" stroke="#000" stroke-opacity="0" fill="#0c7cba"/><use xlink:href="#c" transform="matrix(1,0,0,1,138.33333333333337,433) translate(32.55 38.4625)"/><use xlink:href="#b" transform="matrix(1,0,0,1,138.33333333333337,433) translate(73.5 38.4625)"/><path d="M293.83 228h62.62" stroke="#666" fill="none"/><path d="M293.85 228.5h-.55l.03-.5v-.5h.52z" fill="#666"/><path d="M371.22 228l-14.27 4.64v-9.28z" stroke="#666" fill="#666"/><path d="M373.33 176c0-4.42 3.6-8 8-8h144c4.42 0 8 3.58 8 8v104c0 4.42-3.58 8-8 8h-144c-4.4 0-8-3.58-8-8z" stroke="#fff" fill="#0c7cba"/><path d="M389.33 168v120m128-120v120" stroke="#fff" fill="none"/><use xlink:href="#d" transform="matrix(1,0,0,1,398.33333333333337,173) translate(7.074999999999996 37)"/><use xlink:href="#e" transform="matrix(1,0,0,1,398.33333333333337,173) translate(67.025 37)"/><use xlink:href="#f" transform="matrix(1,0,0,1,398.33333333333337,173) translate(27.525 58.6)"/><use xlink:href="#g" transform="matrix(1,0,0,1,398.33333333333337,173) translate(12.399999999999999 80.20000000000002)"/><path d="M293.83 468h27.25c6.63 0 12-5.37 12-12v-56c0-6.63 5.38-12 12-12h11.37" stroke="#666" fill="none"/><path d="M293.85 468.5h-.55l.03-.5v-.5h.52z" fill="#666"/><path d="M371.22 388l-14.27 4.64v-9.28z" stroke="#666" fill="#666"/><path d="M373.33 336c0-4.42 3.6-8 8-8h144c4.42 0 8 3.58 8 8v104c0 4.42-3.58 8-8 8h-144c-4.4 0-8-3.58-8-8z" stroke="#fff" fill="#0c7cba"/><path d="M389.33 328v120m128-120v120" stroke="#fff" fill="none"/><use xlink:href="#h" transform="matrix(1,0,0,1,398.33333333333337,333) translate(18.074999999999996 37)"/><use xlink:href="#e" transform="matrix(1,0,0,1,398.33333333333337,333) translate(56.025 37)"/><use xlink:href="#f" transform="matrix(1,0,0,1,398.33333333333337,333) translate(27.525 58.6)"/><use xlink:href="#g" transform="matrix(1,0,0,1,398.33333333333337,333) translate(12.399999999999999 80.20000000000002)"/><path d="M373.33 496c0-4.42 3.6-8 8-8h144c4.42 0 8 3.58 8 8v104c0 4.42-3.58 8-8 8h-144c-4.4 0-8-3.58-8-8z" stroke="#fff" fill="#0c7cba"/><path d="M389.33 488v120m128-120v120" stroke="#fff" fill="none"/><use xlink:href="#i" transform="matrix(1,0,0,1,398.33333333333337,493) translate(3.1499999999999915 37)"/><use xlink:href="#e" transform="matrix(1,0,0,1,398.33333333333337,493) translate(70.95 37)"/><use xlink:href="#j" transform="matrix(1,0,0,1,398.33333333333337,493) translate(25.575000000000003 58.6)"/><use xlink:href="#k" transform="matrix(1,0,0,1,398.33333333333337,493) translate(14.625 80.20000000000002)"/><path d="M293.83 468h27.25c6.63 0 12 5.37 12 12v56c0 6.63 5.38 12 12 12h11.37" stroke="#666" fill="none"/><path d="M293.85 468.5h-.55l.03-.5v-.5h.52z" fill="#666"/><path d="M371.22 548l-14.27 4.64v-9.28z" stroke="#666" fill="#666"/><path d="M1173.33 328c-8.83 0-16 26.86-16 60s7.17 60 16 60H1029.32c-8.83 0-16-26.86-16-60s7.17-60 16-60z" stroke="#fff" fill="#0c7cba"/><use xlink:href="#l" transform="matrix(1,0,0,1,1018.3333333333334,333) translate(42.025 59.0875)"/><path d="M573.33 176c0-4.42 3.6-8 8-8h144c4.42 0 8 3.58 8 8v104c0 4.42-3.58 8-8 8h-144c-4.4 0-8-3.58-8-8z" stroke="#fff" fill="#ff741d"/><use xlink:href="#m" transform="matrix(1,0,0,1,578.3333333333334,173) translate(9.150000000000006 59.0875)"/><path d="M572.33 228h-38.6c-.5 0-.9.4-.9.9s.4.9.9.9h22.72" stroke="#666" fill="none"/><path d="M572.83 228.5h-.5v-1h.5z" fill="#666"/><path d="M571.22 229.8l-14.27 4.65v-9.27z" stroke="#666" fill="#666"/><path d="M573.33 336c0-4.42 3.6-8 8-8h144c4.42 0 8 3.58 8 8v104c0 4.42-3.58 8-8 8h-144c-4.4 0-8-3.58-8-8z" stroke="#fff" fill="#ff741d"/><use xlink:href="#m" transform="matrix(1,0,0,1,578.3333333333334,333) translate(9.150000000000006 59.0875)"/><path d="M572.33 388h-38.6c-.5 0-.9.4-.9.9s.4.9.9.9h22.72" stroke="#666" fill="none"/><path d="M572.83 388.5h-.5v-1h.5z" fill="#666"/><path d="M571.22 389.8l-14.27 4.65v-9.27z" stroke="#666" fill="#666"/><path d="M573.83 496c0-4.42 3.6-8 8-8h144c4.42 0 8 3.58 8 8v104c0 4.42-3.58 8-8 8h-144c-4.4 0-8-3.58-8-8z" stroke="#fff" fill="#ff741d"/><use xlink:href="#m" transform="matrix(1,0,0,1,578.8333333333334,493) translate(9.150000000000006 59.0875)"/><path d="M572.83 548h-38.6c-.5 0-.9.4-.9.9s.4.9.9.9h22.72" stroke="#666" fill="none"/><path d="M573.33 548.5h-.5v-1h.5z" fill="#666"/><path d="M571.72 549.8l-14.27 4.65v-9.27z" stroke="#666" fill="#666"/><path d="M793.33 336c0-4.42 3.6-8 8-8h144c4.42 0 8 3.58 8 8v104c0 4.42-3.58 8-8 8h-144c-4.4 0-8-3.58-8-8z" stroke="#fff" fill="#ff741d"/><use xlink:href="#n" transform="matrix(1,0,0,1,798.3333333333334,333) translate(27.049999999999997 59.0875)"/><path d="M734.33 228h127c6.63 0 12 5.37 12 12v71.12" stroke="#666" fill="none"/><path d="M734.35 228.5h-.52v-1h.52z" fill="#666"/><path d="M873.33 325.88l-4.63-14.26h9.27z" stroke="#666" fill="#666"/><path d="M734.33 388h42.12" stroke="#666" fill="none"/><path d="M734.35 388.5h-.52v-1h.52z" fill="#666"/><path d="M791.22 388l-14.27 4.64v-9.28z" stroke="#666" fill="#666"/><path d="M734.83 548h126.5c6.63 0 12-5.37 12-12v-71.12" stroke="#666" fill="none"/><path d="M734.85 548.5h-.52v-1h.52z" fill="#666"/><path d="M873.33 450.12l4.64 14.26h-9.27z" stroke="#666" fill="#666"/><path d="M954.33 388h42.12" stroke="#666" fill="none"/><path d="M954.35 388.5h-.52v-1h.52z" fill="#666"/><path d="M1011.2 388l-14.25 4.64v-9.28z" stroke="#666" fill="#666"/><defs><path fill="#fff" d="M160-131c35 5 61 23 61 61C221 17 115-2 30 0v-248c76 3 177-17 177 60 0 33-19 50-47 57zm-97-11c50-1 110 9 110-42 0-47-63-36-110-37v79zm0 115c55-2 124 14 124-45 0-56-70-42-124-44v89" id="o"/><path fill="#fff" d="M100-194c62-1 85 37 85 99 1 63-27 99-86 99S16-35 15-95c0-66 28-99 85-99zM99-20c44 1 53-31 53-75 0-43-8-75-51-75s-53 32-53 75 10 74 51 75" id="p"/><path fill="#fff" d="M59-47c-2 24 18 29 38 22v24C64 9 27 4 27-40v-127H5v-23h24l9-43h21v43h35v23H59v120" id="q"/><path fill="#fff" d="M210-169c-67 3-38 105-44 169h-31v-121c0-29-5-50-35-48C34-165 62-65 56 0H25l-1-190h30c1 10-1 24 2 32 10-44 99-50 107 0 11-21 27-35 58-36 85-2 47 119 55 194h-31v-121c0-29-5-49-35-48" id="r"/><g id="a"><use transform="matrix(0.05,0,0,0.05,0,0)" xlink:href="#o"/><use transform="matrix(0.05,0,0,0.05,12,0)" xlink:href="#p"/><use transform="matrix(0.05,0,0,0.05,22,0)" xlink:href="#q"/><use transform="matrix(0.05,0,0,0.05,27,0)" xlink:href="#q"/><use transform="matrix(0.05,0,0,0.05,32,0)" xlink:href="#p"/><use transform="matrix(0.05,0,0,0.05,42,0)" xlink:href="#r"/></g><path fill="#fff" d="M115-194c55 1 70 41 70 98S169 2 115 4C84 4 66-9 55-30l1 105H24l-1-265h31l2 30c10-21 28-34 59-34zm-8 174c40 0 45-34 45-75s-6-73-45-74c-42 0-51 32-51 76 0 43 10 73 51 73" id="s"/><path fill="#fff" d="M24 0v-261h32V0H24" id="t"/><path fill="#fff" d="M141-36C126-15 110 5 73 4 37 3 15-17 15-53c-1-64 63-63 125-63 3-35-9-54-41-54-24 1-41 7-42 31l-33-3c5-37 33-52 76-52 45 0 72 20 72 64v82c-1 20 7 32 28 27v20c-31 9-61-2-59-35zM48-53c0 20 12 33 32 33 41-3 63-29 60-74-43 2-92-5-92 41" id="u"/><path fill="#fff" d="M117-194c89-4 53 116 60 194h-32v-121c0-31-8-49-39-48C34-167 62-67 57 0H25l-1-190h30c1 10-1 24 2 32 11-22 29-35 61-36" id="v"/><path fill="#fff" d="M100-194c63 0 86 42 84 106H49c0 40 14 67 53 68 26 1 43-12 49-29l28 8c-11 28-37 45-77 45C44 4 14-33 15-96c1-61 26-98 85-98zm52 81c6-60-76-77-97-28-3 7-6 17-6 28h103" id="w"/><g id="b"><use transform="matrix(0.05,0,0,0.05,0,0)" xlink:href="#s"/><use transform="matrix(0.05,0,0,0.05,10,0)" xlink:href="#t"/><use transform="matrix(0.05,0,0,0.05,13.949999999999998,0)" xlink:href="#u"/><use transform="matrix(0.05,0,0,0.05,23.95,0)" xlink:href="#v"/><use transform="matrix(0.05,0,0,0.05,33.95,0)" xlink:href="#w"/></g><path fill="#fff" d="M185-189c-5-48-123-54-124 2 14 75 158 14 163 119 3 78-121 87-175 55-17-10-28-26-33-46l33-7c5 56 141 63 141-1 0-78-155-14-162-118-5-82 145-84 179-34 5 7 8 16 11 25" id="x"/><path fill="#fff" d="M24-231v-30h32v30H24zM24 0v-190h32V0H24" id="y"/><path fill="#fff" d="M85-194c31 0 48 13 60 33l-1-100h32l1 261h-30c-2-10 0-23-3-31C134-8 116 4 85 4 32 4 16-35 15-94c0-66 23-100 70-100zm9 24c-40 0-46 34-46 75 0 40 6 74 45 74 42 0 51-32 51-76 0-42-9-74-50-73" id="z"/><g id="c"><use transform="matrix(0.05,0,0,0.05,0,0)" xlink:href="#x"/><use transform="matrix(0.05,0,0,0.05,12,0)" xlink:href="#y"/><use transform="matrix(0.05,0,0,0.05,15.949999999999998,0)" xlink:href="#z"/><use transform="matrix(0.05,0,0,0.05,25.950000000000003,0)" xlink:href="#w"/></g><path fill="#fff" d="M115-194c53 0 69 39 70 98 0 66-23 100-70 100C84 3 66-7 56-30L54 0H23l1-261h32v101c10-23 28-34 59-34zm-8 174c40 0 45-34 45-75 0-40-5-75-45-74-42 0-51 32-51 76 0 43 10 73 51 73" id="A"/><g id="d"><use transform="matrix(0.05,0,0,0.05,0,0)" xlink:href="#A"/><use transform="matrix(0.05,0,0,0.05,10,0)" xlink:href="#p"/><use transform="matrix(0.05,0,0,0.05,20,0)" xlink:href="#q"/><use transform="matrix(0.05,0,0,0.05,25,0)" xlink:href="#q"/><use transform="matrix(0.05,0,0,0.05,30,0)" xlink:href="#p"/><use transform="matrix(0.05,0,0,0.05,40,0)" xlink:href="#r"/></g><path fill="#fff" d="M30-248c118-7 216 8 213 122C240-48 200 0 122 0H30v-248zM63-27c89 8 146-16 146-99s-60-101-146-95v194" id="B"/><path fill="#fff" d="M30 0v-248h33v221h125V0H30" id="C"/><path fill="#fff" d="M212-179c-10-28-35-45-73-45-59 0-87 40-87 99 0 60 29 101 89 101 43 0 62-24 78-52l27 14C228-24 195 4 139 4 59 4 22-46 18-125c-6-104 99-153 187-111 19 9 31 26 39 46" id="D"/><g id="e"><use transform="matrix(0.05,0,0,0.05,0,0)" xlink:href="#B"/><use transform="matrix(0.05,0,0,0.05,12.950000000000001,0)" xlink:href="#C"/><use transform="matrix(0.05,0,0,0.05,22.950000000000003,0)" xlink:href="#D"/></g><path fill="#fff" d="M87 75C49 33 22-17 22-94c0-76 28-126 65-167h31c-38 41-64 92-64 168S80 34 118 75H87" id="E"/><path fill="#fff" d="M135-143c-3-34-86-38-87 0 15 53 115 12 119 90S17 21 10-45l28-5c4 36 97 45 98 0-10-56-113-15-118-90-4-57 82-63 122-42 12 7 21 19 24 35" id="F"/><path fill="#fff" d="M84 4C-5 8 30-112 23-190h32v120c0 31 7 50 39 49 72-2 45-101 50-169h31l1 190h-30c-1-10 1-25-2-33-11 22-28 36-60 37" id="G"/><path fill="#fff" d="M68-38c1 34 0 65-14 84H32c9-13 17-26 17-46H33v-38h35" id="H"/><g id="f"><use transform="matrix(0.05,0,0,0.05,0,0)" xlink:href="#E"/><use transform="matrix(0.05,0,0,0.05,5.95,0)" xlink:href="#F"/><use transform="matrix(0.05,0,0,0.05,14.949999999999998,0)" xlink:href="#s"/><use transform="matrix(0.05,0,0,0.05,24.95,0)" xlink:href="#p"/><use transform="matrix(0.05,0,0,0.05,34.95,0)" xlink:href="#G"/><use transform="matrix(0.05,0,0,0.05,44.95,0)" xlink:href="#q"/><use transform="matrix(0.05,0,0,0.05,49.95,0)" xlink:href="#H"/></g><path fill="#fff" d="M177-190C167-65 218 103 67 71c-23-6-38-20-44-43l32-5c15 47 100 32 89-28v-30C133-14 115 1 83 1 29 1 15-40 15-95c0-56 16-97 71-98 29-1 48 16 59 35 1-10 0-23 2-32h30zM94-22c36 0 50-32 50-73 0-42-14-75-50-75-39 0-46 34-46 75s6 73 46 73" id="I"/><path fill="#fff" d="M127-220V0H93v-220H8v-28h204v28h-85" id="J"/><path fill="#fff" d="M33-261c38 41 65 92 65 168S71 34 33 75H2C39 34 66-17 66-93S39-220 2-261h31" id="K"/><g id="g"><use transform="matrix(0.05,0,0,0.05,0,0)" xlink:href="#q"/><use transform="matrix(0.05,0,0,0.05,5,0)" xlink:href="#p"/><use transform="matrix(0.05,0,0,0.05,15,0)" xlink:href="#v"/><use transform="matrix(0.05,0,0,0.05,25,0)" xlink:href="#I"/><use transform="matrix(0.05,0,0,0.05,35,0)" xlink:href="#G"/><use transform="matrix(0.05,0,0,0.05,45,0)" xlink:href="#w"/><use transform="matrix(0.05,0,0,0.05,55,0)" xlink:href="#J"/><use transform="matrix(0.05,0,0,0.05,65.3,0)" xlink:href="#y"/><use transform="matrix(0.05,0,0,0.05,69.25,0)" xlink:href="#s"/><use transform="matrix(0.05,0,0,0.05,79.25,0)" xlink:href="#K"/></g><g id="h"><use transform="matrix(0.05,0,0,0.05,0,0)" xlink:href="#F"/><use transform="matrix(0.05,0,0,0.05,9,0)" xlink:href="#y"/><use transform="matrix(0.05,0,0,0.05,12.949999999999998,0)" xlink:href="#z"/><use transform="matrix(0.05,0,0,0.05,22.95,0)" xlink:href="#w"/></g><path fill="#fff" d="M206 0h-36l-40-164L89 0H53L-1-190h32L70-26l43-164h34l41 164 42-164h31" id="L"/><g id="i"><use transform="matrix(0.05,0,0,0.05,0,0)" xlink:href="#F"/><use transform="matrix(0.05,0,0,0.05,9,0)" xlink:href="#L"/><use transform="matrix(0.05,0,0,0.05,21.950000000000003,0)" xlink:href="#u"/><use transform="matrix(0.05,0,0,0.05,31.950000000000003,0)" xlink:href="#t"/><use transform="matrix(0.05,0,0,0.05,35.900000000000006,0)" xlink:href="#t"/><use transform="matrix(0.05,0,0,0.05,39.85000000000001,0)" xlink:href="#p"/><use transform="matrix(0.05,0,0,0.05,49.85000000000001,0)" xlink:href="#L"/></g><path fill="#fff" d="M114-163C36-179 61-72 57 0H25l-1-190h30c1 12-1 29 2 39 6-27 23-49 58-41v29" id="M"/><path fill="#fff" d="M179-190L93 31C79 59 56 82 12 73V49c39 6 53-20 64-50L1-190h34L92-34l54-156h33" id="N"/><path fill="#fff" d="M141 0L90-78 38 0H4l68-98-65-92h35l48 74 47-74h35l-64 92 68 98h-35" id="O"/><g id="j"><use transform="matrix(0.05,0,0,0.05,0,0)" xlink:href="#E"/><use transform="matrix(0.05,0,0,0.05,5.95,0)" xlink:href="#t"/><use transform="matrix(0.05,0,0,0.05,9.9,0)" xlink:href="#u"/><use transform="matrix(0.05,0,0,0.05,19.9,0)" xlink:href="#M"/><use transform="matrix(0.05,0,0,0.05,25.849999999999994,0)" xlink:href="#N"/><use transform="matrix(0.05,0,0,0.05,34.849999999999994,0)" xlink:href="#v"/><use transform="matrix(0.05,0,0,0.05,44.849999999999994,0)" xlink:href="#O"/><use transform="matrix(0.05,0,0,0.05,53.849999999999994,0)" xlink:href="#H"/></g><path fill="#fff" d="M153-248C145-148 188 4 80 4 36 3 13-21 6-62l32-5c4 25 16 42 43 43 27 0 39-20 39-49v-147H72v-28h81" id="P"/><g id="k"><use transform="matrix(0.05,0,0,0.05,0,0)" xlink:href="#t"/><use transform="matrix(0.05,0,0,0.05,3.95,0)" xlink:href="#p"/><use transform="matrix(0.05,0,0,0.05,13.949999999999998,0)" xlink:href="#L"/><use transform="matrix(0.05,0,0,0.05,26.899999999999995,0)" xlink:href="#w"/><use transform="matrix(0.05,0,0,0.05,36.9,0)" xlink:href="#M"/><use transform="matrix(0.05,0,0,0.05,42.85,0)" xlink:href="#P"/><use transform="matrix(0.05,0,0,0.05,51.85,0)" xlink:href="#u"/><use transform="matrix(0.05,0,0,0.05,61.85,0)" xlink:href="#L"/><use transform="matrix(0.05,0,0,0.05,74.8,0)" xlink:href="#K"/></g><path fill="#fff" d="M96-169c-40 0-48 33-48 73s9 75 48 75c24 0 41-14 43-38l32 2c-6 37-31 61-74 61-59 0-76-41-82-99-10-93 101-131 147-64 4 7 5 14 7 22l-32 3c-4-21-16-35-41-35" id="Q"/><path fill="#fff" d="M33 0v-38h34V0H33" id="R"/><path fill="#fff" d="M108 0H70L1-190h34L89-25l56-165h34" id="S"/><g id="l"><use transform="matrix(0.05,0,0,0.05,0,0)" xlink:href="#t"/><use transform="matrix(0.05,0,0,0.05,3.95,0)" xlink:href="#p"/><use transform="matrix(0.05,0,0,0.05,13.949999999999998,0)" xlink:href="#Q"/><use transform="matrix(0.05,0,0,0.05,22.95,0)" xlink:href="#R"/><use transform="matrix(0.05,0,0,0.05,27.950000000000003,0)" xlink:href="#Q"/><use transform="matrix(0.05,0,0,0.05,36.95,0)" xlink:href="#F"/><use transform="matrix(0.05,0,0,0.05,45.95,0)" xlink:href="#S"/></g><g id="m"><use transform="matrix(0.05,0,0,0.05,0,0)" xlink:href="#Q"/><use transform="matrix(0.05,0,0,0.05,9,0)" xlink:href="#u"/><use transform="matrix(0.05,0,0,0.05,19,0)" xlink:href="#t"/><use transform="matrix(0.05,0,0,0.05,22.95,0)" xlink:href="#y"/><use transform="matrix(0.05,0,0,0.05,26.899999999999995,0)" xlink:href="#A"/><use transform="matrix(0.05,0,0,0.05,36.9,0)" xlink:href="#M"/><use transform="matrix(0.05,0,0,0.05,42.85,0)" xlink:href="#u"/><use transform="matrix(0.05,0,0,0.05,52.85,0)" xlink:href="#q"/><use transform="matrix(0.05,0,0,0.05,57.85,0)" xlink:href="#w"/><use transform="matrix(0.05,0,0,0.05,67.85,0)" xlink:href="#D"/><use transform="matrix(0.05,0,0,0.05,80.8,0)" xlink:href="#u"/><use transform="matrix(0.05,0,0,0.05,90.8,0)" xlink:href="#r"/><use transform="matrix(0.05,0,0,0.05,105.75,0)" xlink:href="#w"/><use transform="matrix(0.05,0,0,0.05,115.75,0)" xlink:href="#M"/><use transform="matrix(0.05,0,0,0.05,121.7,0)" xlink:href="#u"/></g><path fill="#fff" d="M126-127c33 6 58 20 58 59 0 88-139 92-164 29-3-8-5-16-6-25l32-3c6 27 21 44 54 44 32 0 52-15 52-46 0-38-36-46-79-43v-28c39 1 72-4 72-42 0-27-17-43-46-43-28 0-47 15-49 41l-32-3c6-42 35-63 81-64 48-1 79 21 79 65 0 36-21 52-52 59" id="T"/><g id="n"><use transform="matrix(0.05,0,0,0.05,0,0)" xlink:href="#Q"/><use transform="matrix(0.05,0,0,0.05,9,0)" xlink:href="#p"/><use transform="matrix(0.05,0,0,0.05,19,0)" xlink:href="#v"/><use transform="matrix(0.05,0,0,0.05,29,0)" xlink:href="#F"/><use transform="matrix(0.05,0,0,0.05,38,0)" xlink:href="#q"/><use transform="matrix(0.05,0,0,0.05,43,0)" xlink:href="#M"/><use transform="matrix(0.05,0,0,0.05,48.95,0)" xlink:href="#G"/><use transform="matrix(0.05,0,0,0.05,58.95,0)" xlink:href="#Q"/><use transform="matrix(0.05,0,0,0.05,67.95,0)" xlink:href="#q"/><use transform="matrix(0.05,0,0,0.05,72.95,0)" xlink:href="#T"/><use transform="matrix(0.05,0,0,0.05,82.95,0)" xlink:href="#B"/></g></defs></g></svg>